<svg width="87" height="77" viewBox="149 234 87 77" xmlns="http://www.w3.org/2000/svg"><g fill="#DE3341"><path d="M192.832 310.66c-16.345 0-31.506-7.41-41.586-20.333-1.993-2.56-1.55-6.252 1.002-8.25 2.546-2.005 6.235-1.56 8.233 1.005 7.842 10.05 19.638 15.815 32.352 15.815 12.85 0 24.72-5.865 32.56-16.09 1.977-2.577 5.653-3.065 8.222-1.084 2.57 1.982 3.056 5.675 1.08 8.245-10.08 13.153-25.34 20.69-41.862 20.69zM166.408 263.407c-4.863 0-8.797-3.946-8.797-8.822v-11.763c0-4.876 3.935-8.822 8.798-8.822 4.862 0 8.797 3.946 8.797 8.822v11.763c0 4.87-3.94 8.822-8.797 8.822zM218.92 263.407c-4.856 0-8.796-3.946-8.796-8.822v-11.763c0-4.876 3.94-8.822 8.797-8.822 4.858 0 8.798 3.946 8.798 8.822v11.763c0 4.87-3.94 8.822-8.797 8.822z"/></g></svg>