<svg width="86" height="85" viewBox="150 226 86 85" xmlns="http://www.w3.org/2000/svg"><path d="M192.502 226C169.03 226 150 245.03 150 268.502S169.03 311 192.502 311c23.473 0 42.502-19.026 42.502-42.498 0-23.473-19.03-42.502-42.502-42.502zm25.67 36.27l-25.504 25.505c-2.07 2.067-5.446 2.067-7.513 0L172.14 274.76c-2.065-2.065-2.065-5.444 0-7.512l.94-.94c2.067-2.066 5.447-2.066 7.513 0l4.562 4.56c1.877 1.878 3.662 3.692 3.662 3.692s1.847-1.688 3.85-3.69l17.056-17.054c2.065-2.066 5.448-2.066 7.513.005l.937.937c2.067 2.067 2.067 5.447 0 7.514z" fill="#DE3341" /></svg>