<svg xmlns="http://www.w3.org/2000/svg" viewBox="0 0 15.98 15.98" fill="#fff"><path d="M4.15,8a0.59,0.59,0,0,1-.59.59h-3a0.59,0.59,0,0,1,0-1.18h3A0.59,0.59,0,0,1,4.15,8h0Z"/><path d="M16,8a0.59,0.59,0,0,1-.59.59h-3a0.59,0.59,0,1,1,0-1.18h3A0.59,0.59,0,0,1,16,8h0Z"/><path d="M8.58,0.59v3a0.59,0.59,0,1,1-1.18,0v-3a0.59,0.59,0,1,1,1.18,0h0Z"/><path d="M8.58,12.41v3a0.59,0.59,0,1,1-1.18,0v-3a0.59,0.59,0,1,1,1.18,0h0Z"/><path d="M4.67,6.07a0.59,0.59,0,0,1-.8.22L1.29,4.8a0.59,0.59,0,0,1,.59-1L4.45,5.27a0.59,0.59,0,0,1,.21.8h0Z"/><path d="M14.9,12a0.59,0.59,0,0,1-.8.21l-2.58-1.49a0.59,0.59,0,0,1,.59-1l2.58,1.49a0.59,0.59,0,0,1,.21.8h0Z"/><path d="M12.2,1.87L10.71,4.45a0.59,0.59,0,1,1-1-.59l1.49-2.58a0.59,0.59,0,1,1,1,.59h0Z"/><path d="M6.28,12.11L4.8,14.69a0.59,0.59,0,0,1-1-.59l1.49-2.58a0.59,0.59,0,0,1,1,.59h0Z"/><path d="M6.07,4.67a0.59,0.59,0,0,1-.8-0.22L3.78,1.87a0.59,0.59,0,0,1,1-.59L6.29,3.86a0.59,0.59,0,0,1-.22.8h0Z"/><path d="M12,14.91a0.59,0.59,0,0,1-.8-0.22L9.69,12.11a0.59,0.59,0,1,1,1-.59l1.49,2.58a0.59,0.59,0,0,1-.22.8h0Z"/><path d="M14.69,4.8L12.11,6.29a0.59,0.59,0,0,1-.59-1L14.1,3.78a0.59,0.59,0,0,1,.59,1h0Z"/><path d="M4.45,10.71L1.87,12.19a0.59,0.59,0,0,1-.59-1L3.86,9.69a0.59,0.59,0,1,1,.59,1h0Z"/></svg>