<svg xmlns="http://www.w3.org/2000/svg" viewBox="0 0 26.5 25"><path d="M26.36,18a5.75,5.75,0,0,0-10.71-1.44,0.68,0.68,0,0,1-.85.34,13.12,13.12,0,0,1-6.13-5.54,0.61,0.61,0,0,1,.21-0.81A5.75,5.75,0,0,0,10.83,3,5.66,5.66,0,0,0,5.74,0,5.75,5.75,0,0,0,0,5.43,9.58,9.58,0,0,0,.06,6.6,20.2,20.2,0,0,0,19.19,25h0.2c2.87-.09,4.94-1,6.16-2.59a5.2,5.2,0,0,0,.94-3.15A5.78,5.78,0,0,0,26.36,18ZM2.53,6.27c0-.11,0-0.62,0-0.7A3.26,3.26,0,0,1,5.79,2.5h0a3.27,3.27,0,0,1,3,2,3.26,3.26,0,0,1-2.3,4.4,1.33,1.33,0,0,0-.84.59,1.29,1.29,0,0,0-.06,1.09C7,14.81,11.72,19,16,20a1.26,1.26,0,0,0,1-.15A1.23,1.23,0,0,0,17.5,19a3.32,3.32,0,0,1,2-2.76,3.26,3.26,0,0,1,4.41,2.31,3.27,3.27,0,0,1,.08.7c0,1.9-1.75,3-4.92,3.23A17.48,17.48,0,0,1,2.55,6.38V6.27Z" fill="#fff"/></svg>