<svg xmlns="http://www.w3.org/2000/svg" viewBox="0 0 24.54 24.54"><path d="M24,6.24L18.3,0.59A2,2,0,0,0,16.88,0h0a2,2,0,0,0-1.41.59,4,4,0,0,0-1,3.81L8.3,9.4a5.92,5.92,0,0,0-1-.41A6,6,0,0,0,5,8.75a6,6,0,0,0-3.71,1.73,1,1,0,0,0,0,1.41l3.61,3.61L0.48,21.1a2.11,2.11,0,0,0,1.63,3.44,2.07,2.07,0,0,0,1.32-.47L9,19.6l3.61,3.61a1,1,0,0,0,1.41,0,6,6,0,0,0,.57-0.66,5.92,5.92,0,0,0,.87-1.67,6,6,0,0,0,.31-2.16,6,6,0,0,0-.72-2.56,1,1,0,0,0,.2-0.16l4.86-5.89a3.9,3.9,0,0,0,3.8-1A2,2,0,0,0,24,6.24ZM2.17,22.51a0.1,0.1,0,0,1-.14,0,0.11,0.11,0,0,1,0-.15l4.32-5.42,1.25,1.25ZM13.6,20.25a4,4,0,0,1-.34.76L3.54,11.28a4,4,0,0,1,3.2-.38,3.94,3.94,0,0,1,1.66,1l4.24,4.24A4,4,0,0,1,13.6,20.25ZM19.71,7.66l-1-1a1,1,0,0,0-1.41,1.41l1,1,0.07,0.06-4.48,5.43L10,10.63l6.15-5,0.15-.12a1,1,0,0,0,.25-1.19A2,2,0,0,1,16.88,2l5.66,5.66A2,2,0,0,1,19.71,7.66Z" fill="#fff"/></svg>