<svg xmlns="http://www.w3.org/2000/svg" viewBox="0 0 18 24"><path d="M18,5a3,3,0,0,0-3-3H14V1a1,1,0,0,0-2,0V2H10V1A1,1,0,0,0,8,1V2H6V1A1,1,0,0,0,4,1V2H3A3,3,0,0,0,0,5V21a3,3,0,0,0,3,3H15a3,3,0,0,0,3-3V5ZM2,5A1,1,0,0,1,3,4H4V5A1,1,0,0,0,6,5V4H8V5a1,1,0,0,0,2,0V4h2V5a1,1,0,1,0,2,0V4h1a1,1,0,0,1,1,1V7H2V5ZM15,22H3a1,1,0,0,1-1-1V9H16V21A1,1,0,0,1,15,22Z" fill="#fff"/><path d="M13,11H5a1,1,0,1,0,0,2h8A1,1,0,1,0,13,11Z" fill="#fff"/><path d="M11,15H5a1,1,0,1,0,0,2h6A1,1,0,1,0,11,15Z" fill="#fff"/></svg>