<svg xmlns="http://www.w3.org/2000/svg" viewBox="0 0 23.67 23.68"><path d="M22.79,11.49L12.19,0.88A3,3,0,0,0,10.07,0H4A4,4,0,0,0,0,4v6.07a3,3,0,0,0,.87,2.11L11.48,22.8a3,3,0,0,0,3.91.27A1,1,0,0,0,15.54,23l0.14-.14,0,0,0,0,7.05-7A3,3,0,0,0,22.79,11.49Zm-1.41,2.82-7.1,7.09a1,1,0,0,1-1.39,0L3,11.49l-0.71-.72A1,1,0,0,1,2,10.07V4A2,2,0,0,1,4,2h6.07a1,1,0,0,1,.7.29L21.38,12.9A1,1,0,0,1,21.38,14.31Z" fill="#fff"/><path d="M4.41,4.41a3,3,0,1,0,4.24,0A3,3,0,0,0,4.41,4.41ZM7.24,7.24h0a1,1,0,1,1,0-1.41A1,1,0,0,1,7.24,7.24Z" fill="#fff"/></svg>