<svg xmlns="http://www.w3.org/2000/svg" viewBox="0 0 77.99 11.99"><path d="M29.13,4.64a0.55,0.55,0,0,1-.2.36l-2.8,2.67,0.66,3.78a1.13,1.13,0,0,1,0,.15,0.45,0.45,0,0,1-.08.27,0.28,0.28,0,0,1-.24.11,0.64,0.64,0,0,1-.31-0.09l-3.47-1.78-3.47,1.78a0.67,0.67,0,0,1-.31.09,0.28,0.28,0,0,1-.24-0.11,0.43,0.43,0,0,1-.08-0.27,1.16,1.16,0,0,1,0-.15l0.66-3.78L16.48,5a0.57,0.57,0,0,1-.19-0.36,0.4,0.4,0,0,1,.43-0.35l3.87-.55,1.74-3.44a0.38,0.38,0,0,1,.75,0l1.74,3.44L28.7,4.3a0.4,0.4,0,0,1,.43.35h0Zm-16.29,0a0.55,0.55,0,0,1-.2.36L9.84,7.68l0.66,3.78a1.13,1.13,0,0,1,0,.15,0.45,0.45,0,0,1-.08.27,0.28,0.28,0,0,1-.24.11,0.64,0.64,0,0,1-.31-0.09L6.42,10.11,3,11.89a0.67,0.67,0,0,1-.31.09,0.28,0.28,0,0,1-.24-0.11,0.43,0.43,0,0,1-.08-0.27,1,1,0,0,1,0-.15L3,7.68,0.19,5A0.57,0.57,0,0,1,0,4.64,0.4,0.4,0,0,1,.43,4.3l3.87-.55L6,0.31A0.44,0.44,0,0,1,6.42,0,0.44,0.44,0,0,1,6.8.31L8.54,3.75,12.41,4.3a0.4,0.4,0,0,1,.43.35h0Zm32.57,0a0.55,0.55,0,0,1-.2.36l-2.8,2.67,0.66,3.78a1,1,0,0,1,0,.15,0.45,0.45,0,0,1-.08.27,0.28,0.28,0,0,1-.24.11,0.65,0.65,0,0,1-.31-0.09L39,10.11l-3.47,1.78a0.67,0.67,0,0,1-.31.09A0.28,0.28,0,0,1,35,11.88a0.43,0.43,0,0,1-.08-0.27,1.16,1.16,0,0,1,0-.15l0.66-3.78L32.77,5a0.58,0.58,0,0,1-.19-0.36A0.4,0.4,0,0,1,33,4.3l3.87-.55,1.74-3.44a0.39,0.39,0,0,1,.76,0l1.74,3.44L45,4.3a0.4,0.4,0,0,1,.43.35h0Zm16.29,0a0.55,0.55,0,0,1-.2.36L58.7,7.68l0.66,3.78a0.93,0.93,0,0,1,0,.15,0.44,0.44,0,0,1-.08.27,0.27,0.27,0,0,1-.24.11,0.64,0.64,0,0,1-.31-0.09l-3.47-1.78-3.46,1.78a0.67,0.67,0,0,1-.31.09,0.28,0.28,0,0,1-.24-0.11,0.43,0.43,0,0,1-.08-0.27,1.16,1.16,0,0,1,0-.15l0.66-3.78L49.05,5a0.58,0.58,0,0,1-.19-0.36,0.4,0.4,0,0,1,.43-0.35l3.87-.55L54.9,0.31a0.39,0.39,0,0,1,.76,0l1.74,3.44L61.27,4.3a0.4,0.4,0,0,1,.43.35h0ZM78,4.64a0.55,0.55,0,0,1-.2.36L75,7.68l0.66,3.78a1.13,1.13,0,0,1,0,.15,0.45,0.45,0,0,1-.08.27,0.28,0.28,0,0,1-.24.11A0.65,0.65,0,0,1,75,11.9l-3.46-1.78L68.1,11.89a0.68,0.68,0,0,1-.31.09,0.28,0.28,0,0,1-.24-0.11,0.43,0.43,0,0,1-.08-0.27,1,1,0,0,1,0-.15l0.66-3.78L65.34,5a0.57,0.57,0,0,1-.19-0.36,0.4,0.4,0,0,1,.43-0.35l3.87-.55,1.74-3.44a0.39,0.39,0,0,1,.76,0l1.74,3.44L77.55,4.3a0.4,0.4,0,0,1,.43.35h0Z" fill="#d42c3a"/></svg>