<svg xmlns="http://www.w3.org/2000/svg" viewBox="0 0 24 24.45"><path d="M23.49,11.12L20.72,8.22h0l-7.18-7.5A2,2,0,0,0,12,0a2,2,0,0,0-1.49.66L8.67,2.59A1.91,1.91,0,0,0,7,1.45H5C3.88,1.45,3,2.58,3,4V8.45s0,0,0,.06L0.48,11.16A2,2,0,0,0,2,14.45H3v8a2,2,0,0,0,2,2H19a2,2,0,0,0,2-2v-8h1a2,2,0,0,0,1.81-1.16A2,2,0,0,0,23.49,11.12ZM5,4a1.11,1.11,0,0,1,.13-0.57H6.87A1.11,1.11,0,0,1,7,4V4.34L5,6.43V4Zm5,18.43v-7h4v7H10Zm11-10a2,2,0,0,0-2,2v8H16v-7a2,2,0,0,0-2-2H10a2,2,0,0,0-2,2v7H5v-8a2,2,0,0,0-2-2l-1,0L12,2l6.5,6.79h0L22,12.45H21Z" fill="#fff"/></svg>