<svg xmlns="http://www.w3.org/2000/svg" viewBox="0 0 22.85 28.38"><path d="M19,1.37A8.12,8.12,0,0,0,7.76,3.54a7.75,7.75,0,0,0-1,6A8.28,8.28,0,0,0,7.21,11l-7,12.86a2,2,0,0,0,.67,2.65L3.14,28a2.2,2.2,0,0,0,3-.48L15,16.08a8.25,8.25,0,0,0,1.51-.15,7.75,7.75,0,0,0,5.1-3.4A8.12,8.12,0,0,0,19,1.37ZM14.43,2a6.39,6.39,0,0,1,3.48,1A6.19,6.19,0,0,1,20.59,9.9a7.25,7.25,0,0,1-7-.79,7.08,7.08,0,0,1-3.41-5.38A5.94,5.94,0,0,1,14.43,2ZM5.56,25.61a1.23,1.23,0,0,1-1.64.28l-1.13-.73a1.23,1.23,0,0,1-.41-1.62L7.86,13.43a8.61,8.61,0,0,0,4.74,3ZM16.1,14A6.43,6.43,0,0,1,8.7,9.15,5.79,5.79,0,0,1,9.1,5.3a8.67,8.67,0,0,0,3.67,5.07,8.5,8.5,0,0,0,7.13,1h0A5.77,5.77,0,0,1,16.1,14Z" fill="#fff"/><path d="M8.47,15.86l-1.94,3a0.21,0.21,0,0,0,.06.28l1.23,0.8a0.21,0.21,0,0,0,.28-0.06l1.94-3a0.21,0.21,0,0,0,0-.15A0.2,0.2,0,0,0,10,16.6l-1.23-.8A0.21,0.21,0,0,0,8.47,15.86Z" fill="#fff"/></svg>