<svg xmlns="http://www.w3.org/2000/svg" viewBox="0 0 31.47 29.21"><path d="M30.14,2.25H27A3,3,0,0,0,24.37,0H6.78A3,3,0,0,0,4.16,2.25H1.33a1.33,1.33,0,1,0,0,2.66H3.87V28.38a0.83,0.83,0,0,0,.83.83H22.28a0.83,0.83,0,0,0,.83-0.83V24.8h3.33A0.83,0.83,0,0,0,27.27,24V4.91h2.87A1.33,1.33,0,1,0,30.14,2.25Zm-6.58,0,0.08-.12L23.74,2l0.09-.09,0.11-.1L24,1.76l0.1-.06a0.59,0.59,0,0,1,.21,0,1.06,1.06,0,0,1,.79.59H24.06a1.3,1.3,0,0,0-.57.14ZM6.78,1.66H22v0a4.53,4.53,0,0,0-.31.79s0,0.07,0,.1a5.25,5.25,0,0,0-.14.75s0,0.05,0,.08a0.8,0.8,0,0,0,0,.22v20L19,20.41l-2,2.64-2-2.64-2,2.64-2-2.64L9.13,23l-2-2.64L5.53,22.56v-18a1.31,1.31,0,0,0,.5-1,1.3,1.3,0,0,0-.3-0.8A1.43,1.43,0,0,1,6.78,1.66ZM5.53,27.55V25L6,25.31l1.18-1.57,1.18,1.57,0.8-.6,0.8,0.6,1.18-1.57,1.18,1.57,0.8-.6,0.8,0.6,1.18-1.57,1.18,1.57,0.8-.6,0.8,0.6L19,23.74l1.18,1.57,1.23-.93v3.17H5.53Zm20.08-4.42h-2.5V4.5a1.32,1.32,0,0,0,.95.4h1.55V23.14Z" fill="#fff"/></svg>