<svg xmlns="http://www.w3.org/2000/svg" viewBox="0 0 24.72 23"><path d="M15.36,18a1,1,0,0,0-1,1,2,2,0,1,1-2-2,1,1,0,1,0,0-2,4,4,0,1,0,4,4A1,1,0,0,0,15.36,18Z" fill="#fff"/><path d="M12.36,10A8.91,8.91,0,0,0,5.9,12.73a1,1,0,0,0,1.44,1.39,7,7,0,0,1,10,0,1,1,0,0,0,1.44-1.39A8.91,8.91,0,0,0,12.36,10Z" fill="#fff"/><path d="M12.36,5A14,14,0,0,0,3.14,8.47,1,1,0,0,0,4.46,10a12,12,0,0,1,15.8,0,1,1,0,0,0,1.32-1.5A14,14,0,0,0,12.36,5Z" fill="#fff"/><path d="M24.35,4.26a19,19,0,0,0-24,0A1,1,0,0,0,1.63,5.82a17,17,0,0,1,21.46,0A1,1,0,1,0,24.35,4.26Z" fill="#fff"/></svg>