<svg xmlns="http://www.w3.org/2000/svg" viewBox="0 0 37 15.91"><path d="M28.4,0H8.61C3.86,0,0,3.55,0,7.93V8a7.59,7.59,0,0,0,2.16,5.27A8.92,8.92,0,0,0,8.6,15.9a8.83,8.83,0,0,0,6.22-2.52,8.47,8.47,0,0,0,1.86-2.79,2,2,0,0,1,1.85-1.31,2,2,0,0,1,1.8,1.21,10.26,10.26,0,0,0,1.86,2.81,8.48,8.48,0,0,0,6.21,2.6C33.15,15.91,37,12.35,37,8S33.15,0,28.4,0ZM11.91,1a0.68,0.68,0,0,1,0,1.37A0.68,0.68,0,0,1,11.91,1Zm-4.26.1a0.68,0.68,0,0,1,0,1.37,0.68,0.68,0,0,1,0-1.37h0Zm-5.52,7a0.68,0.68,0,0,1-.32.08,0.67,0.67,0,0,1-.61-0.93,0.61,0.61,0,0,1,.61-0.44,0.69,0.69,0,0,1,.32,1.29h0Zm1.08,4.22a0.68,0.68,0,0,1,0-1.37A0.68,0.68,0,0,1,3.22,12.35Zm0.49-8A0.68,0.68,0,0,1,3.71,3,0.68,0.68,0,0,1,3.71,4.33Zm3.14,10.4a0.68,0.68,0,0,1,0-1.37A0.68,0.68,0,0,1,6.84,14.72Zm4.58-.23a0.68,0.68,0,0,1,0-1.37A0.68,0.68,0,0,1,11.42,14.5ZM9.53,8.9a5.68,5.68,0,0,1-4.41-2.1,5.68,5.68,0,0,1,8.82,0A5.69,5.69,0,0,1,9.53,8.9h0ZM14.24,12a0.68,0.68,0,0,1,0-1.37,0.68,0.68,0,0,1,0,1.37h0Zm1.84-9.58a0.68,0.68,0,0,1,0-1.37A0.68,0.68,0,0,1,16.08,2.41ZM29.37,1.14a0.68,0.68,0,0,1,0,1.37,0.68,0.68,0,0,1,0-1.37h0ZM25.11,1a0.68,0.68,0,0,1,0,1.37A0.68,0.68,0,0,1,25.11,1ZM20.94,2.41a0.68,0.68,0,0,1,0-1.37A0.68,0.68,0,0,1,20.94,2.41ZM22.78,12a0.68,0.68,0,0,1,0-1.37,0.68,0.68,0,0,1,0,1.37h0Zm2.83,2.51a0.68,0.68,0,0,1,0-1.37A0.68,0.68,0,0,1,25.61,14.5Zm4.57,0.23a0.68,0.68,0,0,1,0-1.37A0.68,0.68,0,0,1,30.17,14.72ZM27.49,8.89a5.68,5.68,0,0,1-4.41-2.1,5.68,5.68,0,0,1,8.83,0,5.7,5.7,0,0,1-4.41,2.1h0ZM33.32,3a0.68,0.68,0,0,1,0,1.37A0.68,0.68,0,0,1,33.32,3Zm0.49,9.39a0.68,0.68,0,0,1,0-1.37A0.68,0.68,0,0,1,33.81,12.35ZM35.2,8.2a0.68,0.68,0,0,1,0-1.37A0.68,0.68,0,0,1,35.2,8.2Z" fill="#fff"/></svg>