<svg xmlns="http://www.w3.org/2000/svg" viewBox="0 0 24.78 29.34"><path d="M20.7,13.35l0.58,14c0,1-.4,1.8-1.37,1.8a1.63,1.63,0,0,1-1.58-1.8l0.4-14c-2-.74-4.23-3.85-4.23-7,0-3,2.15-6.25,5.06-6.25s5.21,3.34,5.21,6.32c0,3.24-2,6.21-4.08,6.95h0Zm-10.57-.06H7V27.73c0,1-.18,1.61-1.15,1.61s-1.23-.62-1.23-1.61V13.28h-3A1.66,1.66,0,0,1,0,11.48V1.8A1.62,1.62,0,0,1,1.76,0C2.34,0,2.2,2,2.2,2v9H4.64V1.8c0-1,.26-1.8,1.23-1.8S7,0.81,7,1.8v9.12H9.69V1.8c0-1-.12-1.8.44-1.8a1.6,1.6,0,0,1,1.76,1.8v9.69a1.78,1.78,0,0,1-1.76,1.8h0Z" fill="#fff"/></svg>