<svg xmlns="http://www.w3.org/2000/svg" viewBox="0 0 24.88 31.49"><path d="M6.81,5.94A2.34,2.34,0,0,0,4.39,8.19a2.34,2.34,0,0,0,2.42,2.26h0A2.34,2.34,0,0,0,9.23,8.2,2.34,2.34,0,0,0,6.81,5.94Z" fill="#fff"/><path d="M18.57,8.2a2.43,2.43,0,0,0-4.84,0,2.34,2.34,0,0,0,2.42,2.26h0A2.34,2.34,0,0,0,18.57,8.2Z" fill="#fff"/><ellipse cx="6.81" cy="15.07" rx="2.42" ry="2.26" fill="#fff"/><polygon points="24.47 20.24 22.77 19.94 22.23 20.36 21.94 19.79 20.44 19.52 19.94 19.98 19.65 19.37 18.29 19.13 17.57 11.79 15.04 11.94 15.04 11.94 14.29 20.59 13.78 20.2 12.46 20.85 12.22 21.69 15.3 28.97 15.49 31.49 22.77 31.42 22.87 28.63 24.88 21.22 24.47 20.24" fill="#fff"/><polygon points="2 2 20.43 2 20.43 17.67 22.43 17.67 22.43 0 0 0 0 27.82 12.14 27.82 12.14 25.82 2 25.82 2 2" fill="#fff"/></svg>